<svg xmlns="http://www.w3.org/2000/svg" viewBox="0 0 545 585" width="545" height="585">
<path d="M 282 526 L 274 518 L 268 520 L 257 521 L 251 527 Z" fill="#000" stroke="none"/>
<path d="M 244 463 L 226 452 L 216 453 L 205 458 L 192 461 L 174 454 L 169 454 L 164 456 L 160 460 L 160 464 L 165 467 L 192 474 L 222 473 Z" fill="#000" stroke="none"/>
<path d="M 387 460 L 384 456 L 376 456 L 365 462 L 358 462 L 339 453 L 327 451 L 323 456 L 322 463 L 318 467 L 292 469 L 285 473 L 273 486 L 263 512 L 277 508 L 312 490 L 331 485 L 353 483 L 366 477 L 379 474 L 383 472 L 385 469 Z" fill="#000" stroke="none"/>
<path d="M 468 481 L 467 476 L 461 465 L 450 455 L 438 450 L 421 450 L 414 452 L 403 458 L 391 471 L 394 472 L 399 470 L 415 470 L 418 473 L 418 475 L 414 479 L 315 499 L 319 503 L 332 509 L 348 514 L 372 517 L 376 519 L 375 521 L 363 522 L 336 518 L 322 513 L 305 503 L 282 515 L 287 521 L 297 526 L 312 530 L 431 530 L 444 526 L 452 521 L 461 512 L 467 500 Z" fill="#000" stroke="none"/>
<path d="M 72 495 L 76 507 L 88 521 L 98 527 L 108 530 L 220 530 L 242 523 L 252 515 L 260 500 L 265 483 L 274 469 L 267 469 L 259 473 L 249 481 L 234 497 L 218 507 L 208 511 L 185 516 L 168 516 L 167 514 L 170 512 L 195 508 L 217 499 L 234 486 L 242 475 L 211 482 L 127 480 L 122 477 L 122 475 L 125 472 L 140 470 L 158 471 L 148 462 L 134 454 L 126 451 L 111 449 L 96 452 L 86 458 L 80 464 L 73 477 Z" fill="#000" stroke="none"/>
<path d="M 252 440 L 252 442 L 256 445 L 274 449 L 284 448 L 291 445 L 292 441 L 270 442 L 256 438 Z" fill="#000" stroke="none"/>
<path d="M 213 446 L 199 440 L 183 430 L 174 431 L 131 442 L 154 456 L 162 450 L 171 447 L 203 449 Z" fill="#000" stroke="none"/>
<path d="M 335 445 L 350 449 L 384 448 L 391 454 L 393 454 L 412 441 L 361 429 L 350 437 Z" fill="#000" stroke="none"/>
<path d="M 240 206 L 240 215 L 234 222 L 188 237 L 176 244 L 165 256 L 158 272 L 148 364 L 149 385 L 154 396 L 160 404 L 176 418 L 195 430 L 226 443 L 241 454 L 254 459 L 266 461 L 284 461 L 296 459 L 313 452 L 324 442 L 341 434 L 360 422 L 380 405 L 389 391 L 392 383 L 393 369 L 383 274 L 376 257 L 364 244 L 348 235 L 318 226 L 317 244 L 311 275 L 300 306 L 290 325 L 279 341 L 259 362 L 234 378 L 214 383 L 209 396 L 235 418 L 257 418 L 271 423 L 284 419 L 293 418 L 312 419 L 336 395 L 353 371 L 353 295 L 354 282 L 357 277 L 360 279 L 360 373 L 342 399 L 314 426 L 286 425 L 273 429 L 273 434 L 275 435 L 297 434 L 302 436 L 306 441 L 301 447 L 282 454 L 268 454 L 257 451 L 247 445 L 245 442 L 245 437 L 247 434 L 250 433 L 266 434 L 268 431 L 267 428 L 251 424 L 235 425 L 226 420 L 198 394 L 185 373 L 185 356 L 187 348 L 192 292 L 194 286 L 197 283 L 201 287 L 202 314 L 204 327 L 213 361 L 215 376 L 224 374 L 239 367 L 255 356 L 269 342 L 285 320 L 294 302 L 305 270 L 309 251 L 311 224 L 306 222 L 300 216 L 299 206 L 289 211 L 277 214 L 256 213 Z" fill="#000" stroke="none"/>
<path d="M 260 51 L 249 58 L 242 70 L 241 81 L 231 87 L 222 96 L 217 106 L 215 116 L 217 134 L 211 137 L 209 140 L 209 148 L 218 179 L 217 201 L 221 206 L 228 207 L 232 203 L 233 198 L 225 185 L 216 152 L 216 141 L 218 141 L 222 146 L 229 179 L 237 194 L 246 202 L 252 205 L 269 209 L 287 205 L 296 200 L 303 193 L 309 182 L 318 144 L 321 141 L 323 141 L 325 145 L 315 183 L 306 199 L 310 206 L 317 207 L 322 202 L 321 183 L 325 164 L 331 147 L 331 140 L 324 134 L 325 114 L 323 106 L 317 95 L 309 87 L 299 82 L 298 70 L 294 62 L 287 55 L 277 50 Z" fill="#000" stroke="none"/>
</svg>